# xmcd
#
# Track frame offsets:
#	150
#	18065
#	39035
#	55731
#	72728
#	90027
#	104933
#	121219
#	140275
#	154817
#	171969
#	189243
#	212688
#	230434
#	244553
#	262555
#	288795
#	308620
#	320802
#	341257
#
# Disc length: 4752 seconds
# Revision: 2
# Processed by: cddbd v1.5.2PL0 Copyright (c) Steve Scherf et al.
# Submitted via: dBpowerAMP V12.0
#
DISCID=01128e14
DTITLE=Various Artist - Alligator Records 45th anniversary collection CD1
DYEAR=2016
DGENRE=Blues
TTITLE0=Lil' Ed and The Blues Imperials - Hold that train
TTITLE1=Son Seals - Cotton picking blues
TTITLE2=Shemekia Copeland - Devil's hand
TTITLE3=Elvin Bishop - Can't even do wrong right
TTITLE4=Toronzo Cannon - Bad contract
TTITLE5=Charlie Musselwhite - The well
TTITLE6=Marcia Ball - The tattooed lady and the alligator man
TTITLE7=Tommy Castro and The Painkillers - Common ground
TTITLE8=Carey and Lurrie Bell - The road is so long
TTITLE9=Koko Taylor - Voodoo woman
TTITLE10=Selwyn Birchwood - Don't call no ambulance
TTITLE11=Rick Estrin and The Nightcats - Callin' all fools
TTITLE12=Joe Louis Walker - Too drunk to drive drunk
TTITLE13=Lee Rocker - Crazy when she drinks
TTITLE14=Moreland and Arbuckle - Take me with you (when you go)
TTITLE15=Jimmy Johnson - Your turn to cry
TTITLE16=Delbert McClinton - Givin' it up for your love
TTITLE17=Hound Dog Taylor and The HouseRockers - Take five
TTITLE18=Anders Osborne - Let it go
TTITLE19=Mavis Staples - Will the circle be unbroken
EXTD=
EXTT0=
EXTT1=
EXTT2=
EXTT3=
EXTT4=
EXTT5=
EXTT6=
EXTT7=
EXTT8=
EXTT9=
EXTT10=
EXTT11=
EXTT12=
EXTT13=
EXTT14=
EXTT15=
EXTT16=
EXTT17=
EXTT18=
EXTT19=
PLAYORDER=
